TITLE ""
FILE "Step3_Track31.mp3" MP3
  TRACK 01 AUDIO
    TITLE "Step3_Track31_01"
    INDEX 01 00:00:00
  TRACK 02 AUDIO
    TITLE "Step3_Track31_02"
    INDEX 01 00:00:24
  TRACK 03 AUDIO
    TITLE "Step3_Track31_03"
    INDEX 01 00:01:65
  TRACK 04 AUDIO
    TITLE "Step3_Track31_04"
    INDEX 01 00:02:48
  TRACK 05 AUDIO
    TITLE "Step3_Track31_05"
    INDEX 01 00:03:42
  TRACK 06 AUDIO
    TITLE "Step3_Track31_06"
    INDEX 01 00:03:52
  TRACK 07 AUDIO
    TITLE "Step3_Track31_07"
    INDEX 01 00:05:35
  TRACK 08 AUDIO
    TITLE "Step3_Track31_08"
    INDEX 01 00:06:01
  TRACK 09 AUDIO
    TITLE "Step3_Track31_09"
    INDEX 01 00:06:72
  TRACK 10 AUDIO
    TITLE "Step3_Track31_10"
    INDEX 01 00:07:08
  TRACK 11 AUDIO
    TITLE "Step3_Track31_11"
    INDEX 01 00:09:23
  TRACK 12 AUDIO
    TITLE "Step3_Track31_12"
    INDEX 01 00:09:62
  TRACK 13 AUDIO
    TITLE "Step3_Track31_13"
    INDEX 01 00:10:60
  TRACK 14 AUDIO
    TITLE "Step3_Track31_14"
    INDEX 01 00:10:62
  TRACK 15 AUDIO
    TITLE "Step3_Track31_15"
    INDEX 01 00:12:74
  TRACK 16 AUDIO
    TITLE "Step3_Track31_16"
    INDEX 01 00:13:38
  TRACK 17 AUDIO
    TITLE "Step3_Track31_17"
    INDEX 01 00:14:38
  TRACK 18 AUDIO
    TITLE "Step3_Track31_18"
    INDEX 01 00:14:44
  TRACK 19 AUDIO
    TITLE "Step3_Track31_19"
    INDEX 01 00:17:21
  TRACK 20 AUDIO
    TITLE "Step3_Track31_20"
    INDEX 01 00:17:48
  TRACK 21 AUDIO
    TITLE "Step3_Track31_21"
    INDEX 01 00:18:40
  TRACK 22 AUDIO
    TITLE "Step3_Track31_22"
    INDEX 01 00:18:69
  TRACK 23 AUDIO
    TITLE "Step3_Track31_23"
    INDEX 01 00:20:72
  TRACK 24 AUDIO
    TITLE "Step3_Track31_24"
    INDEX 01 00:21:30
  TRACK 25 AUDIO
    TITLE "Step3_Track31_25"
    INDEX 01 00:22:33
  TRACK 26 AUDIO
    TITLE "Step3_Track31_26"
    INDEX 01 00:22:35
  TRACK 27 AUDIO
    TITLE "Step3_Track31_27"
    INDEX 01 00:25:18
  TRACK 28 AUDIO
    TITLE "Step3_Track31_28"
    INDEX 01 00:25:57
  TRACK 29 AUDIO
    TITLE "Step3_Track31_29"
    INDEX 01 00:26:57
  TRACK 30 AUDIO
    TITLE "Step3_Track31_30"
    INDEX 01 00:26:59
  TRACK 31 AUDIO
    TITLE "Step3_Track31_31"
    INDEX 01 00:30:09
  TRACK 32 AUDIO
    TITLE "Step3_Track31_32"
    INDEX 01 00:30:31
  TRACK 33 AUDIO
    TITLE "Step3_Track31_33"
    INDEX 01 00:31:21
  TRACK 34 AUDIO
    TITLE "Step3_Track31_34"
    INDEX 01 00:31:27
  TRACK 35 AUDIO
    TITLE "Step3_Track31_35"
    INDEX 01 00:34:23
  TRACK 36 AUDIO
    TITLE "Step3_Track31_36"
    INDEX 01 00:34:56
  TRACK 37 AUDIO
    TITLE "Step3_Track31_37"
    INDEX 01 00:35:52
  TRACK 38 AUDIO
    TITLE "Step3_Track31_38"
    INDEX 01 00:35:64
  TRACK 39 AUDIO
    TITLE "Step3_Track31_39"
    INDEX 01 00:37:72
  TRACK 40 AUDIO
    TITLE "Step3_Track31_40"
    INDEX 01 00:38:19
  TRACK 41 AUDIO
    TITLE "Step3_Track31_41"
    INDEX 01 00:39:16
  TRACK 42 AUDIO
    TITLE "Step3_Track31_42"
    INDEX 01 00:39:18
  TRACK 43 AUDIO
    TITLE "Step3_Track31_43"
    INDEX 01 00:42:15
